<svg width="36" height="36" viewBox="0 0 36 36" fill="none" xmlns="http://www.w3.org/2000/svg">
<path d="M4 16H12C14.2 16 16 14.2 16 12V4C16 1.8 14.2 0 12 0H4C1.8 0 0 1.8 0 4V12C0 14.2 1.8 16 4 16Z" fill="#EFA968"/>
<path d="M4 36H12C14.2 36 16 34.2 16 32V24C16 21.8 14.2 20 12 20H4C1.8 20 0 21.8 0 24V32C0 34.2 1.8 36 4 36Z" fill="#EFA968"/>
<path d="M20 4V12C20 14.2 21.8 16 24 16H32C34.2 16 36 14.2 36 12V4C36 1.8 34.2 0 32 0H24C21.8 0 20 1.8 20 4Z" fill="#EFA968"/>
<path d="M24 36H32C34.2 36 36 34.2 36 32V24C36 21.8 34.2 20 32 20H24C21.8 20 20 21.8 20 24V32C20 34.2 21.8 36 24 36Z" fill="#EFA968"/>
</svg>
