<svg width="50" height="50" viewBox="0 0 50 50" fill="none" xmlns="http://www.w3.org/2000/svg">
<path fill-rule="evenodd" clip-rule="evenodd" d="M4.16699 7.16675V34.3751V38.7084C4.16699 40.9176 5.95786 42.7084 8.167 42.7084H13.7087C15.9178 42.7084 17.7087 40.9175 17.7087 38.7084V35.3751C17.7087 34.8228 18.1564 34.3751 18.7087 34.3751H37.5003V7.16675C37.5003 5.50989 36.1572 4.16675 34.5003 4.16675H7.16699C5.51014 4.16675 4.16699 5.5099 4.16699 7.16675ZM15.2411 20.0927L20.0528 26.1073C20.4531 26.6077 21.2142 26.6077 21.6145 26.1073L26.4263 20.0927C26.8518 19.5607 27.0837 18.8998 27.0837 18.2186V17.5834C27.0837 15.9266 25.7405 14.5834 24.0837 14.5834H23.6388C22.8432 14.5834 22.0801 14.8995 21.5175 15.4621L20.8337 16.1459L20.1498 15.4621C19.5872 14.8995 18.8242 14.5834 18.0285 14.5834H17.5837C15.9268 14.5834 14.5837 15.9266 14.5837 17.5834V18.2186C14.5837 18.8998 14.8155 19.5607 15.2411 20.0927ZM45.5765 39.5623C44.6588 43.1672 41.3909 45.8334 37.5003 45.8334H12.5003C16.3909 45.8334 19.6588 43.1672 20.5765 39.5623C20.8604 38.4473 21.7664 37.5001 22.917 37.5001H43.7503C44.9009 37.5001 45.8604 38.4473 45.5765 39.5623Z" fill="#609F9A"/>
</svg>
