<svg width="50" height="50" viewBox="0 0 50 50" fill="none" xmlns="http://www.w3.org/2000/svg">
<path fill-rule="evenodd" clip-rule="evenodd" d="M33.334 7.0883L34.2903 6.13699C36.9311 3.51 41.2126 3.51 43.8534 6.13699C46.4942 8.76397 46.4942 13.0232 43.8534 15.6501L35.2466 24.212C34.1903 25.2628 32.4777 25.2628 31.4214 24.212L22.8146 15.6501C20.1738 13.0232 20.1738 8.76397 22.8146 6.13699C25.4553 3.51 29.7369 3.51 32.3777 6.13699L33.334 7.0883ZM4.16699 20.8334H8.33366L21.38 26.5412C23.3838 27.4179 24.3053 29.7468 23.4437 31.7572C23.3129 32.0623 23.1485 32.3428 22.9567 32.596L28.611 36.1804C30.3467 37.0483 32.2606 37.5001 34.2012 37.5001H37.5003C39.8015 37.5001 41.667 39.3656 41.667 41.6667C41.667 43.9679 39.8015 45.8334 37.5003 45.8334H20.6015C18.014 45.8334 15.4622 45.231 13.1479 44.0739L4.16699 39.5834V20.8334Z" fill="#609F9A"/>
</svg>
