<svg width="52" height="52" viewBox="0 0 52 52" fill="none" xmlns="http://www.w3.org/2000/svg">
<path fill-rule="evenodd" clip-rule="evenodd" d="M26 23.8333C29.5899 23.8333 32.5 20.9232 32.5 17.3333C32.5 13.7435 29.5899 10.8333 26 10.8333C22.4102 10.8333 19.5 13.7435 19.5 17.3333C19.5 20.9232 22.4102 23.8333 26 23.8333ZM26 41.1667C33.1797 41.1667 39 38.2565 39 34.6667C39 31.0768 33.1797 28.1667 26 28.1667C18.8203 28.1667 13 31.0768 13 34.6667C13 38.2565 18.8203 41.1667 26 41.1667ZM13.827 28.2079C8.47601 28.5379 4.33337 30.8188 4.33337 33.5836C4.33337 35.8628 7.14893 37.8133 11.1359 38.6129C10.245 37.4065 9.75004 36.0714 9.75004 34.6669C9.75004 32.1895 11.29 29.9279 13.827 28.2079ZM42.2502 34.6669C42.2502 36.0714 41.7552 37.4065 40.8643 38.6129C44.8513 37.8133 47.6668 35.8628 47.6668 33.5836C47.6668 30.8189 43.5242 28.5379 38.1733 28.2079C40.7102 29.9279 42.2502 32.1895 42.2502 34.6669ZM34.0563 22.8267C35.125 21.2624 35.75 19.3708 35.75 17.3333C35.75 16.6572 35.6812 15.9972 35.5501 15.3598C35.9556 15.2343 36.3866 15.1667 36.8333 15.1667C39.2265 15.1667 41.1666 17.1068 41.1666 19.5C41.1666 21.8932 39.2265 23.8333 36.8333 23.8333C35.7766 23.8333 34.8083 23.4551 34.0563 22.8267ZM15.1667 15.1667C15.6134 15.1667 16.0444 15.2343 16.4499 15.3598C16.3189 15.9972 16.25 16.6572 16.25 17.3333C16.25 19.3708 16.875 21.2624 17.9437 22.8267C17.1917 23.4551 16.2234 23.8333 15.1667 23.8333C12.7735 23.8333 10.8334 21.8932 10.8334 19.5C10.8334 17.1068 12.7735 15.1667 15.1667 15.1667Z" fill="#EFA968"/>
</svg>
